# xmcd
#
# Track frame offsets:
#	150
#	46257
#	82933
#	98651
#	116381
#	133783
#	162170
#	177943
#	205401
#	230849
#	253775
#	274761
#	293036
#	308747
#	321016
#
# Disc length: 4403 seconds
#
# Revision: 1
# Processed by: cddbd v1.5.1PL0 Copyright (c) Steve Scherf et al.
# Submitted via: audiograbber 1.81.02
#
DISCID=cd11310f
DTITLE=Colin Urquhart - Mein liebes Kind (www.gerth.de)
DYEAR=1900
DGENRE=Chorus
TTITLE0=Ich bin eine Person
TTITLE1=In Liebe geschaffen
TTITLE2=Mein Plan für dich
TTITLE3=Mein Heilsplan
TTITLE4=Ich sorge für dich 
TTITLE5=Laß meine Liebe zu
TTITLE6=Ich liebe dich weil ich dich Liebe
TTITLE7=Ich liebe dich mehr als du dich selbst liebst
TTITLE8=Fürchte dich nicht vor meiner Liebe
TTITLE9=Ich gehe Behutsam mit Dir um
TTITLE10=Du machst es die schwer, Liebe zu empfangen
TTITLE11=Ich liebe die Person die du wirklich bist
TTITLE12=Du bist angekommen
TTITLE13=Meine Liebe macht dich rein
TTITLE14=Ich habe meine Freude an Dir
EXTD=
EXTT0=
EXTT1=
EXTT2=
EXTT3=
EXTT4=
EXTT5=
EXTT6=
EXTT7=
EXTT8=
EXTT9=
EXTT10=
EXTT11=
EXTT12=
EXTT13=
EXTT14=
PLAYORDER=
